<svg version="1.1" xmlns="http://www.w3.org/2000/svg" x="0px" y="0px"
     viewBox="0 0 1700 1704" style="enable-background:new 0 0 1700 1704;" xml:space="preserve">
<style type="text/css">
	.st0{fill:url(#SVGID_1_);}
	.st1{fill:#333333;}
</style>
<g id="Layer_9_xA0_Image_1_">
</g>
<g id="Layer_12__x2B__Layer_19_xA0_Image_1_">
</g>
<g id="Layer_18_xA0_Image_1_">
</g>
<g id="Layer_15__x2B__Layer_20__x2B__Layer_16_xA0_Image_1_">
	
		<linearGradient id="SVGID_1_" gradientUnits="userSpaceOnUse" x1="58.4562" y1="852" x2="1641.5438" y2="852" gradientTransform="matrix(4.489700e-11 -1 1 4.489700e-11 -2 1702)">
		<stop  offset="0" style="stop-color:#F7AF45"/>
		<stop  offset="1" style="stop-color:#FCCD46"/>
	</linearGradient>
	<ellipse class="st0" cx="850" cy="852" rx="793.4" ry="791.5"/>
	<g>
		<path class="st1" d="M0,850.8C0.6,380.9,383.1-0.9,851.7,0c471.4,0.9,853,385.3,850.3,856.1c-2.7,467.4-384.7,847.5-854.9,846
			C380.7,1700.7-0.6,1318,0,850.8z M1330.9,775.3c-0.4,0-0.7,0-1.1,0c0,25.2,0.1,50.3,0,75.5c-0.1,19.2-13.7,32.5-32.9,32.8
			c-7,0.1-14-0.2-21,0.1c-11.2,0.4-20,8-21.6,18.6c-4.9,33.5-9.7,66.9-14.5,100.4c-5.8,40.4-11.8,80.8-17.3,121.2
			c-2.1,15.7-3.2,31.5-4.2,47.2c-0.2,3.5,0.8,7.9,2.8,10.7c49,66.8,98.1,133.4,147.3,200.1c10.3,13.9,25,14.8,37,2.4
			c59.1-61.4,106.9-130.7,143-207.9c42-90,65.7-184.5,71-283.7c3.3-60.8-0.4-121.3-11.4-181.2c-13.8-75-38.2-146.5-73.4-214.3
			c-59.1-113.5-141.2-206.9-246.5-279.6c-114.7-79.2-241.9-123.8-381-134c-68.2-5-135.9-1-203,12.1
			c-75.1,14.7-146.4,40.1-213.8,76.3c-91.1,49-169.4,113.6-235,193.6c-42.6,52-77.9,108.5-105.6,169.7
			c-37.4,82.4-59.5,168.8-66.1,259.1c-4.3,58.9-1.9,117.5,7.2,175.9c13.1,84,39.3,163.8,79.2,238.9c60,113.3,143,206.5,249.2,278.4
			c134.6,91,283.5,134.8,445.9,132.5c18.3-0.3,28.3-15.3,21.6-32.5c-3.6-9.3-6.8-18.8-11.1-27.8c-10.5-22.3-20.9-44.6-32.3-66.4
			c-7.3-14-18.7-24.2-33.2-31.4c-23.9-12-45.1-28-60.7-50.1c-9.7-13.7-18-28.4-27-42.7c-4.7-7.6-9.6-9.3-18.2-6.6
			c-12.9,4-25.8,7.8-38.6,11.9c-15.7,5-31.8,6.6-47.9,2.9c-36.5-8.5-63.4-28.7-73.9-66c-7-25-12.2-50.5-18.1-75.8
			c-6.8-28.9-13.3-57.8-20.4-86.5c-4.5-18.4-19.4-30-38.3-31c-7.3-0.4-14.7-1.3-22-1c-21.6,0.7-39.2-15.3-38.8-39.8
			c0.8-55-0.1-110,0.4-165c0.1-17.4-10.1-27.9-27.7-27.5c-34.5,0.7-69,0.4-103.5,0.1c-8.1-0.1-16.4-1-24.1-3.3
			c-15.3-4.4-26.4-14-31-29.8c-1.2-4-1.5-8.2-2.7-12.2c-2.3-7.6,0-12.8,6.6-17.4c45.6-31.8,91-64.1,136.7-95.9
			c10.9-7.6,16.1-17.4,17.1-30.5c4.3-57.7,19.4-112.5,44.9-164.3c33.2-67.5,80.2-123.6,140.8-168.1c63.1-46.3,133.5-74.3,211-84.7
			c35.3-4.7,70.9-4.7,106.3-3.4c24.7,0.9,49.7,2.9,74,7.4c103.3,19.2,190.3,68.3,259.9,147C1279.7,502.7,1317.3,588,1327,685
			C1330,714.9,1329.7,745.2,1330.9,775.3z M949.6,1064.2c34.7,4.3,64.4,35.1,65.2,69.1c0.4,16.1-1.9,32.6-4.9,48.5
			c-8.6,44.9-33.2,79.3-71.3,104.3c-2.1,1.4-4.3,3.3-5.5,5.5c-7.2,13.3-11.1,27.5-11.2,42.6c-0.2,29.9,11.2,54.7,33.8,74.4
			c15.5,13.5,30.9,27,46.3,40.5c39.6,34.7,79.3,69.3,118.8,104.1c9.3,8.2,18.8,9.3,29.8,3.6c22.6-11.7,45.6-22.8,68.1-34.8
			c33.7-17.9,66.7-37,97.9-59.1c9.2-6.6,13-16.3,9.4-26.1c-1.4-3.7-3.7-7.1-6.1-10.3c-51.5-69.9-103.1-139.7-154.3-209.8
			c-4.4-6-7.6-13.4-9.6-20.6c-5.6-20.8-3.7-42.1-0.8-63.1c8.7-62.2,17.7-124.3,26.6-186.5c2.3-15.7-7.5-27.2-23.4-27.3
			c-14.2-0.1-28.3-0.1-42.5,0c-11.7,0-19.4,5.8-23.1,16.9c-2.1,6.3-4.2,12.7-6.9,18.7c-16.1,35.5-51.2,57.9-88.5,56.7
			c-6.6-0.2-11.5-3.5-13.2-8.8c-1.8-5.7,0.3-10,5.6-14.7c6.5-5.9,13-11.9,18.3-18.9c6.9-9,8.3-19.9,7.1-30.9
			c-1.3-11.3-11.1-19.1-23.7-19.1c-123.6,0-247.3,0-370.9,0c-0.7,0-1.3,0.1-2,0c-2.5-0.2-3.6,0.9-3.5,3.5c0.1,4.7-0.1,9.3,0.1,14
			c0.5,18.4,7.9,33.6,21.9,45.3c23.3,19.6,46.8,39.1,70.3,58.5c15.7,12.9,24.6,29.3,27.3,49.4c5.4,39.8,11.1,79.5,16.8,119.2
			c2.2,15.7,9.7,28.3,23.1,36.9c9.9,6.4,21.1,10.9,32.7,7.4c25.2-7.6,50.2-15.7,74.9-24.9c29.4-10.9,48-33.2,53.7-63.9
			c4.1-22.3,6.7-44.8,9.9-67.2C947.3,1086.4,947.9,1075.6,949.6,1064.2z M940.5,681c18.5,0,37,0,55.5,0c82.7,0,165.3,0,248,0
			c11.8,0,16.7-6,14.3-17.6c-1.9-9.1-3.6-18.3-5.9-27.3c-22.5-86.1-68.6-157-138.4-212.1c-57.9-45.7-123.7-72.8-197.1-80.9
			c-40.5-4.5-81.2-3.7-121.8-0.7c-14.1,1-28,2.8-40.6,10.7c-13.7,8.7-26.8,18.1-38.3,29.5c-28.5,28.1-48.3,61.8-63.3,98.6
			c-17.7,43.4-27.9,88.6-30.8,135.3c-1.1,17.4-0.2,35,0.3,52.4c0.2,7.8,5.3,11.9,13.1,12.1c1.7,0.1,3.3,0,5,0
			C740.5,681,840.5,681,940.5,681z M1012.5,758.1c-78.6,0-157.3,0-235.9,0c-2,0-4-0.1-6,0.1c-7.8,0.5-12.1,6.3-9.9,13.8
			c2.1,7.5,4.5,15,6.9,22.4c2.7,8.3,5.1,10,13.8,10c50.8,0,101.6,0,152.4,0c106.1,0,212.2,0,318.4,0c8.9,0,12.4-3.5,12.5-12.4
			c0.1-7.5,0.1-15,0-22.5c-0.1-7.3-3.9-10.9-11.2-11.3c-1.7-0.1-3.3,0-5,0C1169.7,758.1,1091.1,758.1,1012.5,758.1z"/>
	</g>
</g>
</svg>
